<svg width="47" height="46" viewBox="0 0 47 46" fill="none" xmlns="http://www.w3.org/2000/svg">
<path d="M33.1569 23.166C33.1569 25.8624 32.1413 27.3905 30.9904 29.0524C30.9627 29.0924 30.9348 29.1326 30.9069 29.1728C29.7542 30.8355 28.4681 32.6906 28.4681 35.7694C28.4681 36.3196 28.3327 36.6678 28.163 36.9045C27.9882 37.1483 27.721 37.351 27.3381 37.5117C26.5325 37.8499 25.4282 37.9193 24.3105 37.9193C23.4374 37.9193 22.0164 37.7487 20.8495 37.3142C19.5885 36.8447 19.1345 36.2826 19.1345 35.7675C19.1345 32.6951 17.8725 30.8432 16.7389 29.1796C16.7115 29.1394 16.6843 29.0994 16.6571 29.0595C15.5269 27.3991 14.5264 25.8682 14.5264 23.166C14.5264 18.0952 19.0016 13.9258 23.9195 13.9258C28.8195 13.9258 33.1569 18.076 33.1569 23.166Z" fill="#F3CF71" stroke="#232146" stroke-width="2"/>
<path d="M27.7488 43.2712C27.7488 44.0476 25.6539 45.6155 23.8412 45.6155C22.0285 45.6155 19.9336 44.0476 19.9336 43.2712C19.9336 42.4947 22.0276 42.8023 23.8412 42.8023C25.6539 42.8023 27.7488 42.4947 27.7488 43.2712Z" fill="#232146"/>
<path d="M28.2553 22.4469C27.8887 22.0802 27.296 22.0802 26.9293 22.4469L23.8413 25.5349L20.7533 22.4469C20.3867 22.0802 19.794 22.0802 19.4273 22.4469C19.0607 22.8135 19.0607 23.4062 19.4273 23.7728L22.9036 27.2491V37.1761C22.9036 37.6947 23.3237 38.1139 23.8413 38.1139C24.359 38.1139 24.7791 37.6947 24.7791 37.1761V27.2491L28.2553 23.7728C28.622 23.4062 28.622 22.8135 28.2553 22.4469Z" fill="#232146"/>
<path d="M29.4679 41.8648C29.4679 42.9001 28.6276 43.7403 27.5924 43.7403H20.0903C19.0551 43.7403 18.2148 42.9001 18.2148 41.8648V36.2383H29.4679V41.8648Z" fill="#232146"/>
<path d="M18.214 42.8026C17.7639 42.8026 17.3663 42.4772 17.2903 42.0186C17.205 41.5085 17.5501 41.0246 18.0611 40.9402L29.3141 39.0647C29.8243 38.9728 30.3082 39.3244 30.3926 39.8355C30.4779 40.3457 30.1328 40.8295 29.6217 40.9139L18.3687 42.7894C18.3171 42.7988 18.2646 42.8026 18.214 42.8026ZM18.214 39.0516C17.7639 39.0516 17.3663 38.7262 17.2903 38.2676C17.205 37.7575 17.5501 37.2736 18.0611 37.1892L29.3141 35.3137C29.8243 35.2227 30.3082 35.5734 30.3926 36.0845C30.4779 36.5947 30.1328 37.0785 29.6217 37.1629L18.3687 39.0384C18.3171 39.0478 18.2646 39.0516 18.214 39.0516Z" fill="#232146"/>
<path d="M23.8418 1.58105V8.25213" stroke="#232146" stroke-width="2" stroke-linecap="round" stroke-linejoin="round"/>
<path d="M5.77734 9.79883L11.0372 13.9082" stroke="#232146" stroke-width="2" stroke-linecap="round" stroke-linejoin="round"/>
<path d="M1.74902 25.4731L8.39472 24.8917" stroke="#232146" stroke-width="2" stroke-linecap="round" stroke-linejoin="round"/>
<path d="M39.0029 24.8916L45.6486 25.473" stroke="#232146" stroke-width="2" stroke-linecap="round" stroke-linejoin="round"/>
<path d="M36.3603 13.9078L41.6202 9.79834" stroke="#232146" stroke-width="2" stroke-linecap="round" stroke-linejoin="round"/>
</svg>
