<svg width="50" height="48" viewBox="0 0 50 48" fill="none" xmlns="http://www.w3.org/2000/svg">
<path fill-rule="evenodd" clip-rule="evenodd" d="M26.8754 1.15991L32.9693 13.4187C33.2745 14.037 33.8639 14.4685 34.548 14.5685L48.1907 16.5393C48.7433 16.6129 49.2406 16.9024 49.58 17.3444C50.2168 18.1732 50.1194 19.3468 49.3564 20.0598L39.4683 29.6216C38.9658 30.0952 38.7421 30.7898 38.8737 31.4661L41.2417 44.9588C41.4075 46.0771 40.6445 47.1243 39.5262 47.3059C39.0631 47.3769 38.5895 47.3032 38.1685 47.0954L26.0176 40.7252C25.4072 40.3937 24.6757 40.3937 24.0653 40.7252L11.8249 47.1296C10.8014 47.6506 9.54896 47.2638 8.99114 46.2613C8.77802 45.8561 8.70434 45.3956 8.77802 44.9457L11.1461 31.4529C11.2645 30.7793 11.0408 30.0873 10.5514 29.6111L0.610777 20.0519C-0.199632 19.2468 -0.204895 17.9364 0.602883 17.126C0.605515 17.1234 0.608146 17.1181 0.610777 17.1155C0.944939 16.8129 1.35541 16.6103 1.80008 16.5314L15.4455 14.5606C16.127 14.4527 16.7137 14.0265 17.0242 13.4081L23.1128 1.15991C23.3575 0.662615 23.7916 0.281091 24.3179 0.107432C24.8467 -0.068858 25.4256 -0.0267588 25.9229 0.223205C26.3307 0.425807 26.6649 0.754707 26.8754 1.15991Z" fill="#1E2251"/>
</svg>
